<?xml version="1.0" encoding="utf-8"?>
<!-- Generator: Adobe Illustrator 18.1.0, SVG Export Plug-In . SVG Version: 6.00 Build 0)  -->
<svg version="1.1" id="Calque_1" xmlns="http://www.w3.org/2000/svg" xmlns:xlink="http://www.w3.org/1999/xlink" x="0px" y="0px"
	 viewBox="-3.6 122.2 595.3 595.3" enable-background="new -3.6 122.2 595.3 595.3" xml:space="preserve">
<path fill="#2F738F" d="M294,122.2C130.6,122.2-3.6,256.4-3.6,419.8S130.6,717.4,294,717.4s297.6-134.2,297.6-297.6
	S457.4,122.2,294,122.2z M175.2,265.6c18.8,0,34.1,15.3,34.1,34.1s-15.3,34.1-34.1,34.1s-34.1-15.3-34.1-34.1
	S156.4,265.6,175.2,265.6z M285.4,619.6c-10.5,2.9-21.4-3.2-24.3-13.7l-20.7-74.1l14,1.8l34.2,23.9v0l10.6,37.7
	C302,605.7,295.9,616.6,285.4,619.6z M344.8,553.4c-6.2,8.9-18.5,11.1-27.5,4.9l-57.1-39.8l-67.2-8.8c12.2-17.5,2.3-33.3-1-40
	l78,10.2c3.1,0.4,6.1,1.6,8.7,3.4l61,42.6h0C348.8,532.1,351,544.5,344.8,553.4z M467.4,599.3c0,2.9-1.5,5.5-3.9,7
	c-2.4,1.5-5.5,1.7-8,0.4l-46.3-22.9c-7.2-3.6-13.2-9.3-17.2-16.3l-33-58.6c-3.7-6.6-5.5-14.1-5.1-21.7l3.8-74.3
	c0.6-11.2-3.5-22.1-11.4-30.1l-47.5-48.6c-4.5-4.6-7.8-10.2-9.7-16.3l-13.8-45.3c-2.1-6.8-5.9-12.9-11.1-17.7l-0.8,59.4
	c-0.1,4-1.6,7.8-4.2,10.8l-33.9,37.6l10.1,99l-45.4,4l-16.9-34.5l1-3.6l13.7-48.9l-31.6,54.1l25.1,51.1c4,8.1,0.7,18-7.5,22
	c-8,3.9-18,0.7-22-7.5l-29.5-60.2c-2.4-4.9-2.2-10.8,0.6-15.5l35.2-58.4l-18.4,18.7l-1.2-11.7c-1.3-12.7,7.9-24,20.6-25.3l40.8-4.2
	l30.7-34l1.3-74.1l-11.3-7.2c-1.5-0.9-2.1-2.7-1.7-4.4c0.5-1.7,2-2.8,3.7-2.8h236.5v0c4.6,0,8.3,3.7,8.3,8.3V599.3z"/>
</svg>
