<?xml version="1.0" encoding="utf-8"?>
<!-- Generator: Adobe Illustrator 18.1.0, SVG Export Plug-In . SVG Version: 6.00 Build 0)  -->
<svg version="1.1" id="Calque_1" xmlns="http://www.w3.org/2000/svg" xmlns:xlink="http://www.w3.org/1999/xlink" x="0px" y="0px"
	 viewBox="0 122.7 595.3 595.3" enable-background="new 0 122.7 595.3 595.3" xml:space="preserve">
<path fill="#2F738F" d="M297.6,122.7C134.2,122.7,0,256.9,0,420.3S134.2,718,297.6,718s297.6-134.2,297.6-297.6
	S461.1,122.7,297.6,122.7z M431.7,608c0,14.8-12,26.8-26.8,26.8H190.4c-14.8,0-26.8-12-26.8-26.8v-17.9c0-21.7,15.5-39.8,36.1-43.8
	c0-0.3,0.1-0.6,0.1-0.9h195.8c0,0.3,0.1,0.6,0.1,0.9c20.6,4,36.1,22.1,36.1,43.8V608z M449.5,411.4c0,4.9-4,8.9-8.9,8.9h-17.9
	c-1.8,0-3.5-0.5-5-1.5l-24.6-16.4h-15.2c-1.6,0-3.1-0.4-4.5-1.2l-45.8-26.2c4,10.7,11.3,21.3,19.7,33.6
	c17.8,26,40.9,60.9,46.7,118.9H201.5c3.3-26.9,10.1-57.5,13.7-72.9c-22.1-3.2-57.4-9.6-66.8-19.1c-1.8-1.8-2.7-4.3-2.6-6.8
	c0.1-2.5,1.3-4.9,3.3-6.5c43.3-35.1,50.3-55.6,50.3-91.3c0-43.7,26.8-75.2,38.4-86.8c27-27,92.6-29.3,95.4-29.4l52.4-8.8
	c2.9-0.5,5.8,0.5,7.9,2.6c2,2.1,2.9,5.1,2.3,8l-8.1,40.8l24.4,32.5c1.2,1.6,1.8,3.4,1.8,5.4v15.5l34.6,60.5c0.8,1.4,1.2,2.9,1.2,4.4
	V411.4z"/>
</svg>
