<?xml version="1.0" encoding="utf-8"?>
<!-- Generator: Adobe Illustrator 18.1.0, SVG Export Plug-In . SVG Version: 6.00 Build 0)  -->
<svg version="1.1" id="Calque_1" xmlns="http://www.w3.org/2000/svg" xmlns:xlink="http://www.w3.org/1999/xlink" x="0px" y="0px"
	 viewBox="0 0 570.5 377.3" enable-background="new 0 0 570.5 377.3" xml:space="preserve">
<path fill-rule="evenodd" clip-rule="evenodd" fill="#317390" d="M487.5,0H85.3C76,0,68.5,7.5,68.5,16.8v238.5
	c0,9.3,7.5,16.8,16.8,16.8h402.3c9.3,0,16.8-7.5,16.8-16.8V16.8C504.3,7.5,496.8,0,487.5,0z M490.6,243.8H82.2V16.4h408.4V243.8z"/>
<polygon fill-rule="evenodd" clip-rule="evenodd" fill="#C1D3D2" points="68.2,258.1 0,366.7 569.9,365.7 504.3,257.4 "/>
<path fill-rule="evenodd" clip-rule="evenodd" fill="#317390" d="M570.5,366.2L570.5,366.2c0,6.1-6.5,11.1-14.4,11.1h-541
	c-8,0-14.4-5-14.4-11.1l0,0"/>
<g>
	<g opacity="0.15">
		<polygon fill="#070708" points="96.7,289.9 83.4,289.9 89.4,276.4 102.3,276.4 		"/>
		<polygon fill="#070708" points="107,307 75.7,307 81.8,293.4 112,293.4 		"/>
		<polygon fill="#070708" points="100.7,325.7 68.1,325.7 74.1,312.1 105.7,312.1 		"/>
		<polygon fill="#070708" points="112.7,289.9 99.3,289.9 104.9,276.4 117.8,276.4 		"/>
		<polygon fill="#070708" points="128.7,289.9 115.3,289.9 120.3,276.4 133.2,276.4 		"/>
		<polygon fill="#070708" points="144.7,289.9 131.3,289.9 135.8,276.4 148.7,276.4 		"/>
		<polygon fill="#070708" points="160.7,289.9 147.3,289.9 151.3,276.4 164.2,276.4 		"/>
		<polygon fill="#070708" points="176.7,289.9 163.3,289.9 166.7,276.4 179.6,276.4 		"/>
		<polygon fill="#070708" points="192.7,289.9 179.3,289.9 182.2,276.4 195.1,276.4 		"/>
		<polygon fill="#070708" points="208.7,289.9 195.3,289.9 197.7,276.4 210.6,276.4 		"/>
		<polygon fill="#070708" points="224.7,289.9 211.3,289.9 213.2,276.4 226.1,276.4 		"/>
		<polygon fill="#070708" points="240.6,289.9 227.3,289.9 228.6,276.4 241.5,276.4 		"/>
		<polygon fill="#070708" points="256.6,289.9 243.3,289.9 244.1,276.4 257,276.4 		"/>
		<polygon fill="#070708" points="272.6,289.9 259.3,289.9 259.6,276.4 272.5,276.4 		"/>
		<polygon fill="#070708" points="288.6,289.9 275.3,289.9 275,276.4 287.9,276.4 		"/>
		<polygon fill="#070708" points="304.6,289.9 291.3,289.9 290.5,276.4 303.4,276.4 		"/>
		<polygon fill="#070708" points="320.6,289.9 307.3,289.9 306,276.4 318.9,276.4 		"/>
		<polygon fill="#070708" points="336.6,289.9 323.3,289.9 321.5,276.4 334.3,276.4 		"/>
		<polygon fill="#070708" points="352.6,289.9 339.3,289.9 336.9,276.4 349.8,276.4 		"/>
		<polygon fill="#070708" points="368.6,289.9 355.3,289.9 352.4,276.4 365.3,276.4 		"/>
		<polygon fill="#070708" points="384.6,289.9 371.3,289.9 367.9,276.4 380.8,276.4 		"/>
		<polygon fill="#070708" points="400.6,289.9 387.3,289.9 383.3,276.4 396.2,276.4 		"/>
		<polygon fill="#070708" points="416.6,289.9 403.3,289.9 398.8,276.4 411.7,276.4 		"/>
		<polygon fill="#070708" points="432.6,289.9 419.3,289.9 414.3,276.4 427.2,276.4 		"/>
		<polygon fill="#070708" points="448.6,289.9 435.3,289.9 429.8,276.4 442.6,276.4 		"/>
		<polygon fill="#070708" points="464.6,289.9 451.3,289.9 445.2,276.4 458.1,276.4 		"/>
		<polygon fill="#070708" points="480.6,289.9 467.3,289.9 460.7,276.4 473.6,276.4 		"/>
		<polygon fill="#070708" points="74.7,343.1 59.6,343.1 65.7,329.5 80.3,329.5 		"/>
		<polygon fill="#070708" points="92.7,343.1 77.7,343.1 83.2,329.5 97.8,329.5 		"/>
		<polygon fill="#070708" points="110.8,343.1 95.8,343.1 100.7,329.5 115.4,329.5 		"/>
		<polygon fill="#070708" points="128.9,343.1 113.8,343.1 118.3,329.5 132.9,329.5 		"/>
		<polygon fill="#070708" points="146.9,343.1 131.9,343.1 135.8,329.5 150.4,329.5 		"/>
		<polygon fill="#070708" points="165,343.1 149.9,343.1 153.3,329.5 168,329.5 		"/>
		<polygon fill="#070708" points="399,343.1 168.7,343.1 171.6,329.5 395.2,329.5 		"/>
		<polygon fill="#070708" points="417.8,343.1 402.8,343.1 398.8,329.5 413.4,329.5 		"/>
		<polygon fill="#070708" points="435.9,343.1 420.8,343.1 416.3,329.5 431,329.5 		"/>
		<polygon fill="#070708" points="453.9,343.1 438.9,343.1 433.9,329.5 448.5,329.5 		"/>
		<polygon fill="#070708" points="472,343.1 456.9,343.1 451.4,329.5 466,329.5 		"/>
		<polygon fill="#070708" points="490,343.1 475,343.1 469,329.5 483.6,329.5 		"/>
		<polygon fill="#070708" points="508.1,343.1 493,343.1 486.5,329.5 501.1,329.5 		"/>
		<polygon fill="#070708" points="122.9,307 109.1,307 114,293.4 127.5,293.4 		"/>
		<polygon fill="#070708" points="139.6,307 125.7,307 130.2,293.4 143.6,293.4 		"/>
		<polygon fill="#070708" points="156.3,307 142.4,307 146.3,293.4 159.8,293.4 		"/>
		<polygon fill="#070708" points="172.9,307 159,307 162.4,293.4 175.9,293.4 		"/>
		<polygon fill="#070708" points="189.6,307 175.7,307 178.6,293.4 192,293.4 		"/>
		<polygon fill="#070708" points="206.2,307 192.3,307 194.7,293.4 208.2,293.4 		"/>
		<polygon fill="#070708" points="222.9,307 209,307 210.8,293.4 224.3,293.4 		"/>
		<polygon fill="#070708" points="239.5,307 225.7,307 227,293.4 240.4,293.4 		"/>
		<polygon fill="#070708" points="256.2,307 242.3,307 243.1,293.4 256.6,293.4 		"/>
		<polygon fill="#070708" points="272.9,307 259,307 259.2,293.4 272.7,293.4 		"/>
		<polygon fill="#070708" points="289.5,307 275.6,307 275.4,293.4 288.8,293.4 		"/>
		<polygon fill="#070708" points="306.2,307 292.3,307 291.5,293.4 305,293.4 		"/>
		<polygon fill="#070708" points="322.8,307 309,307 307.6,293.4 321.1,293.4 		"/>
		<polygon fill="#070708" points="339.5,307 325.6,307 323.8,293.4 337.2,293.4 		"/>
		<polygon fill="#070708" points="356.2,307 342.3,307 339.9,293.4 353.4,293.4 		"/>
		<polygon fill="#070708" points="372.8,307 358.9,307 356,293.4 369.5,293.4 		"/>
		<polygon fill="#070708" points="389.5,307 375.6,307 372.2,293.4 385.6,293.4 		"/>
		<polygon fill="#070708" points="406.1,307 392.3,307 388.3,293.4 401.8,293.4 		"/>
		<polygon fill="#070708" points="422.8,307 408.9,307 404.4,293.4 417.9,293.4 		"/>
		<polygon fill="#070708" points="439.5,307 425.6,307 420.6,293.4 434,293.4 		"/>
		<polygon fill="#070708" points="456.1,307 442.2,307 436.7,293.4 450.2,293.4 		"/>
		<polygon fill="#070708" points="472.8,307 458.9,307 452.8,293.4 466.3,293.4 		"/>
		<polygon fill="#070708" points="498.6,324.7 484.1,324.7 469,293.4 482.4,293.4 		"/>
		<polygon fill="#070708" points="116.7,325.7 102.2,325.7 107.2,312.1 121.2,312.1 		"/>
		<polygon fill="#070708" points="134,325.7 119.6,325.7 124,312.1 138.1,312.1 		"/>
		<polygon fill="#070708" points="151.4,325.7 136.9,325.7 140.9,312.1 154.9,312.1 		"/>
		<polygon fill="#070708" points="168.8,325.7 154.3,325.7 157.7,312.1 171.8,312.1 		"/>
		<polygon fill="#070708" points="186.2,325.7 171.7,325.7 174.6,312.1 188.6,312.1 		"/>
		<polygon fill="#070708" points="203.6,325.7 189.1,325.7 191.4,312.1 205.5,312.1 		"/>
		<polygon fill="#070708" points="221,325.7 206.5,325.7 208.3,312.1 222.4,312.1 		"/>
		<polygon fill="#070708" points="238.3,325.7 223.9,325.7 225.2,312.1 239.2,312.1 		"/>
		<polygon fill="#070708" points="255.7,325.7 241.2,325.7 242,312.1 256.1,312.1 		"/>
		<polygon fill="#070708" points="273.1,325.7 258.6,325.7 258.9,312.1 272.9,312.1 		"/>
		<polygon fill="#070708" points="290.5,325.7 276,325.7 275.7,312.1 289.8,312.1 		"/>
		<polygon fill="#070708" points="307.9,325.7 293.4,325.7 292.6,312.1 306.6,312.1 		"/>
		<polygon fill="#070708" points="325.3,325.7 310.8,325.7 309.5,312.1 323.5,312.1 		"/>
		<polygon fill="#070708" points="342.6,325.7 328.2,325.7 326.3,312.1 340.4,312.1 		"/>
		<polygon fill="#070708" points="360,325.7 345.5,325.7 343.2,312.1 357.2,312.1 		"/>
		<polygon fill="#070708" points="377.4,325.7 362.9,325.7 360,312.1 374.1,312.1 		"/>
		<polygon fill="#070708" points="394.8,325.7 380.3,325.7 376.9,312.1 390.9,312.1 		"/>
		<polygon fill="#070708" points="412.2,325.7 397.7,325.7 393.8,312.1 407.8,312.1 		"/>
		<polygon fill="#070708" points="429.6,325.7 415.1,325.7 410.6,312.1 424.7,312.1 		"/>
		<polygon fill="#070708" points="446.9,325.7 432.5,325.7 427.5,312.1 441.5,312.1 		"/>
		<polygon fill="#070708" points="464.3,325.7 449.8,325.7 444.3,312.1 458.4,312.1 		"/>
		<polygon fill="#070708" points="481.7,325.7 467.2,325.7 461.2,312.1 475.2,312.1 		"/>
	</g>
	<g>
		<g>
			<polygon fill="#317390" points="96.7,288.9 83.4,288.9 89.4,275.4 102.3,275.4 			"/>
			<polygon fill="#317390" points="107,306 75.7,306 81.8,292.4 112,292.4 			"/>
			<polygon fill="#317390" points="100.7,324.7 68.1,324.7 74.1,311.1 105.7,311.1 			"/>
			<polygon fill="#317390" points="112.7,288.9 99.3,288.9 104.9,275.4 117.8,275.4 			"/>
			<polygon fill="#317390" points="128.7,288.9 115.3,288.9 120.3,275.4 133.2,275.4 			"/>
			<polygon fill="#317390" points="144.7,288.9 131.3,288.9 135.8,275.4 148.7,275.4 			"/>
			<polygon fill="#317390" points="160.7,288.9 147.3,288.9 151.3,275.4 164.2,275.4 			"/>
			<polygon fill="#317390" points="176.7,288.9 163.3,288.9 166.7,275.4 179.6,275.4 			"/>
			<polygon fill="#317390" points="192.7,288.9 179.3,288.9 182.2,275.4 195.1,275.4 			"/>
			<polygon fill="#317390" points="208.7,288.9 195.3,288.9 197.7,275.4 210.6,275.4 			"/>
			<polygon fill="#317390" points="224.7,288.9 211.3,288.9 213.2,275.4 226.1,275.4 			"/>
			<polygon fill="#317390" points="240.6,288.9 227.3,288.9 228.6,275.4 241.5,275.4 			"/>
			<polygon fill="#317390" points="256.6,288.9 243.3,288.9 244.1,275.4 257,275.4 			"/>
			<polygon fill="#317390" points="272.6,288.9 259.3,288.9 259.6,275.4 272.5,275.4 			"/>
			<polygon fill="#317390" points="288.6,288.9 275.3,288.9 275,275.4 287.9,275.4 			"/>
			<polygon fill="#317390" points="304.6,288.9 291.3,288.9 290.5,275.4 303.4,275.4 			"/>
			<polygon fill="#317390" points="320.6,288.9 307.3,288.9 306,275.4 318.9,275.4 			"/>
			<polygon fill="#317390" points="336.6,288.9 323.3,288.9 321.5,275.4 334.3,275.4 			"/>
			<polygon fill="#317390" points="352.6,288.9 339.3,288.9 336.9,275.4 349.8,275.4 			"/>
			<polygon fill="#317390" points="368.6,288.9 355.3,288.9 352.4,275.4 365.3,275.4 			"/>
			<polygon fill="#317390" points="384.6,288.9 371.3,288.9 367.9,275.4 380.8,275.4 			"/>
			<polygon fill="#317390" points="400.6,288.9 387.3,288.9 383.3,275.4 396.2,275.4 			"/>
			<polygon fill="#317390" points="416.6,288.9 403.3,288.9 398.8,275.4 411.7,275.4 			"/>
			<polygon fill="#317390" points="432.6,288.9 419.3,288.9 414.3,275.4 427.2,275.4 			"/>
			<polygon fill="#317390" points="448.6,288.9 435.3,288.9 429.8,275.4 442.6,275.4 			"/>
			<polygon fill="#317390" points="464.6,288.9 451.3,288.9 445.2,275.4 458.1,275.4 			"/>
			<polygon fill="#317390" points="480.6,288.9 467.3,288.9 460.7,275.4 473.6,275.4 			"/>
			<polygon fill="#317390" points="74.7,342.1 59.6,342.1 65.7,328.5 80.3,328.5 			"/>
			<polygon fill="#317390" points="92.7,342.1 77.7,342.1 83.2,328.5 97.8,328.5 			"/>
			<polygon fill="#317390" points="110.8,342.1 95.8,342.1 100.7,328.5 115.4,328.5 			"/>
			<polygon fill="#317390" points="128.9,342.1 113.8,342.1 118.3,328.5 132.9,328.5 			"/>
			<polygon fill="#317390" points="146.9,342.1 131.9,342.1 135.8,328.5 150.4,328.5 			"/>
			<polygon fill="#317390" points="165,342.1 149.9,342.1 153.3,328.5 168,328.5 			"/>
			<polygon fill="#317390" points="399,342.1 168.7,342.1 171.6,328.5 395.2,328.5 			"/>
			<polygon fill="#317390" points="417.8,342.1 402.8,342.1 398.8,328.5 413.4,328.5 			"/>
			<polygon fill="#317390" points="435.9,342.1 420.8,342.1 416.3,328.5 431,328.5 			"/>
			<polygon fill="#317390" points="453.9,342.1 438.9,342.1 433.9,328.5 448.5,328.5 			"/>
			<polygon fill="#317390" points="472,342.1 456.9,342.1 451.4,328.5 466,328.5 			"/>
			<polygon fill="#317390" points="490,342.1 475,342.1 469,328.5 483.6,328.5 			"/>
			<polygon fill="#317390" points="508.1,342.1 493,342.1 486.5,328.5 501.1,328.5 			"/>
			<polygon fill="#317390" points="122.9,306 109.1,306 114,292.4 127.5,292.4 			"/>
			<polygon fill="#317390" points="139.6,306 125.7,306 130.2,292.4 143.6,292.4 			"/>
			<polygon fill="#317390" points="156.3,306 142.4,306 146.3,292.4 159.8,292.4 			"/>
			<polygon fill="#317390" points="172.9,306 159,306 162.4,292.4 175.9,292.4 			"/>
			<polygon fill="#317390" points="189.6,306 175.7,306 178.6,292.4 192,292.4 			"/>
			<polygon fill="#317390" points="206.2,306 192.3,306 194.7,292.4 208.2,292.4 			"/>
			<polygon fill="#317390" points="222.9,306 209,306 210.8,292.4 224.3,292.4 			"/>
			<polygon fill="#317390" points="239.5,306 225.7,306 227,292.4 240.4,292.4 			"/>
			<polygon fill="#317390" points="256.2,306 242.3,306 243.1,292.4 256.6,292.4 			"/>
			<polygon fill="#317390" points="272.9,306 259,306 259.2,292.4 272.7,292.4 			"/>
			<polygon fill="#317390" points="289.5,306 275.6,306 275.4,292.4 288.8,292.4 			"/>
			<polygon fill="#317390" points="306.2,306 292.3,306 291.5,292.4 305,292.4 			"/>
			<polygon fill="#317390" points="322.8,306 309,306 307.6,292.4 321.1,292.4 			"/>
			<polygon fill="#317390" points="339.5,306 325.6,306 323.8,292.4 337.2,292.4 			"/>
			<polygon fill="#317390" points="356.2,306 342.3,306 339.9,292.4 353.4,292.4 			"/>
			<polygon fill="#317390" points="372.8,306 358.9,306 356,292.4 369.5,292.4 			"/>
			<polygon fill="#317390" points="389.5,306 375.6,306 372.2,292.4 385.6,292.4 			"/>
			<polygon fill="#317390" points="406.1,306 392.3,306 388.3,292.4 401.8,292.4 			"/>
			<polygon fill="#317390" points="422.8,306 408.9,306 404.4,292.4 417.9,292.4 			"/>
			<polygon fill="#317390" points="439.5,306 425.6,306 420.6,292.4 434,292.4 			"/>
			<polygon fill="#317390" points="456.1,306 442.2,306 436.7,292.4 450.2,292.4 			"/>
			<polygon fill="#317390" points="472.8,306 458.9,306 452.8,292.4 466.3,292.4 			"/>
			<polygon fill="#317390" points="498.6,323.7 484.1,323.7 469,292.4 482.4,292.4 			"/>
			<polygon fill="#317390" points="116.7,324.7 102.2,324.7 107.2,311.1 121.2,311.1 			"/>
			<polygon fill="#317390" points="134,324.7 119.6,324.7 124,311.1 138.1,311.1 			"/>
			<polygon fill="#317390" points="151.4,324.7 136.9,324.7 140.9,311.1 154.9,311.1 			"/>
			<polygon fill="#317390" points="168.8,324.7 154.3,324.7 157.7,311.1 171.8,311.1 			"/>
			<polygon fill="#317390" points="186.2,324.7 171.7,324.7 174.6,311.1 188.6,311.1 			"/>
			<polygon fill="#317390" points="203.6,324.7 189.1,324.7 191.4,311.1 205.5,311.1 			"/>
			<polygon fill="#317390" points="221,324.7 206.5,324.7 208.3,311.1 222.4,311.1 			"/>
			<polygon fill="#317390" points="238.3,324.7 223.9,324.7 225.2,311.1 239.2,311.1 			"/>
			<polygon fill="#317390" points="255.7,324.7 241.2,324.7 242,311.1 256.1,311.1 			"/>
			<polygon fill="#317390" points="273.1,324.7 258.6,324.7 258.9,311.1 272.9,311.1 			"/>
			<polygon fill="#317390" points="290.5,324.7 276,324.7 275.7,311.1 289.8,311.1 			"/>
			<polygon fill="#317390" points="307.9,324.7 293.4,324.7 292.6,311.1 306.6,311.1 			"/>
			<polygon fill="#317390" points="325.3,324.7 310.8,324.7 309.5,311.1 323.5,311.1 			"/>
			<polygon fill="#317390" points="342.6,324.7 328.2,324.7 326.3,311.1 340.4,311.1 			"/>
			<polygon fill="#317390" points="360,324.7 345.5,324.7 343.2,311.1 357.2,311.1 			"/>
			<polygon fill="#317390" points="377.4,324.7 362.9,324.7 360,311.1 374.1,311.1 			"/>
			<polygon fill="#317390" points="394.8,324.7 380.3,324.7 376.9,311.1 390.9,311.1 			"/>
			<polygon fill="#317390" points="412.2,324.7 397.7,324.7 393.8,311.1 407.8,311.1 			"/>
			<polygon fill="#317390" points="429.6,324.7 415.1,324.7 410.6,311.1 424.7,311.1 			"/>
			<polygon fill="#317390" points="446.9,324.7 432.5,324.7 427.5,311.1 441.5,311.1 			"/>
			<polygon fill="#317390" points="464.3,324.7 449.8,324.7 444.3,311.1 458.4,311.1 			"/>
			<polygon fill="#317390" points="481.7,324.7 467.2,324.7 461.2,311.1 475.2,311.1 			"/>
		</g>
	</g>
</g>
</svg>
