<?xml version="1.0" encoding="utf-8"?>
<!-- Generator: Adobe Illustrator 18.1.0, SVG Export Plug-In . SVG Version: 6.00 Build 0)  -->
<svg version="1.1" id="Calque_1" xmlns="http://www.w3.org/2000/svg" xmlns:xlink="http://www.w3.org/1999/xlink" x="0px" y="0px"
	 viewBox="0 0 20.4 20.4" enable-background="new 0 0 20.4 20.4" xml:space="preserve">
<path fill="#2F738F" d="M10.2,0C4.6,0,0,4.6,0,10.2s4.6,10.2,10.2,10.2c5.6,0,10.2-4.6,10.2-10.2S15.8,0,10.2,0z M6.9,16.2
	c0,0.2-0.2,0.4-0.4,0.4H4.6c-0.2,0-0.4-0.2-0.4-0.4V8.4C4.2,8.2,4.4,8,4.6,8h1.8c0.2,0,0.4,0.2,0.4,0.4V16.2z M5.6,7.3
	c-1,0-1.8-0.8-1.8-1.8c0-1,0.8-1.8,1.8-1.8c1,0,1.8,0.8,1.8,1.8C7.3,6.5,6.5,7.3,5.6,7.3z M16.6,16.2c0,0.2-0.2,0.4-0.4,0.4h-2
	c-0.2,0-0.4-0.2-0.4-0.4v-3.7c0-0.5,0.2-2.4-1.4-2.4c-1.2,0-1.5,1.3-1.5,1.8v4.2c0,0.2-0.2,0.4-0.4,0.4H8.5c-0.2,0-0.4-0.2-0.4-0.4
	V8.4C8.1,8.2,8.3,8,8.5,8h1.9c0.2,0,0.4,0.2,0.4,0.4v0.7c0.5-0.7,1.1-1.2,2.6-1.2c3.2,0,3.2,3,3.2,4.6V16.2z"/>
</svg>
