<?xml version="1.0" encoding="utf-8"?>
<!-- Generator: Adobe Illustrator 18.1.0, SVG Export Plug-In . SVG Version: 6.00 Build 0)  -->
<svg version="1.1" id="Calque_1" xmlns="http://www.w3.org/2000/svg" xmlns:xlink="http://www.w3.org/1999/xlink" x="0px" y="0px"
	 viewBox="-0.1 126.8 595.3 595.3" enable-background="new -0.1 126.8 595.3 595.3" xml:space="preserve">
<path fill="#2F738F" d="M297.5,126.8C134.1,126.8-0.1,261-0.1,424.4s134.2,297.6,297.6,297.6s297.6-134.2,297.6-297.6
	S460.9,126.8,297.5,126.8z M186,370.5c0,5.8-4.9,10.8-10.8,10.8H163v193.4h-31.5V381.3h-12.1c-5.8,0-10.8-4.9-10.8-10.8v-30.6
	c0-5.8,4.9-10.8,10.8-10.8h12.1v-54.9H163v54.9h12.1c5.8,0,10.8,4.9,10.8,10.8V370.5z M286.3,511.3c0,5.8-4.9,10.8-10.8,10.8h-12.1
	v52.6h-31.5v-52.6h-12.1c-5.8,0-10.8-4.9-10.8-10.8v-30.6c0-5.8,4.9-10.8,10.8-10.8h12.1V274.2h31.5v195.7h12.1
	c5.8,0,10.8,4.9,10.8,10.8V511.3z M386.1,436.6c0,5.8-4.9,10.8-10.8,10.8h-12.1v127.3h-31.5V447.4h-12.1c-5.8,0-10.8-4.9-10.8-10.8
	V406c0-5.8,4.9-10.8,10.8-10.8h12.1v-121h31.5v121h12.1c5.8,0,10.8,4.9,10.8,10.8V436.6z M486.4,511.3c0,5.8-4.9,10.8-10.8,10.8
	h-12.1v52.6H432v-52.6h-12.1c-5.8,0-10.8-4.9-10.8-10.8v-30.6c0-5.8,4.9-10.8,10.8-10.8H432V274.2h31.5v195.7h12.1
	c5.8,0,10.8,4.9,10.8,10.8V511.3z"/>
</svg>
