<?xml version="1.0" encoding="utf-8"?>
<!-- Generator: Adobe Illustrator 18.1.0, SVG Export Plug-In . SVG Version: 6.00 Build 0)  -->
<svg version="1.1" id="part2" xmlns="http://www.w3.org/2000/svg" xmlns:xlink="http://www.w3.org/1999/xlink" x="0px" y="0px"
	 viewBox="0 0 27.7 127.8" enable-background="new 0 0 27.7 127.8" xml:space="preserve">
<rect x="13.1" y="110.7" fill="#FFED00" width="1.5" height="2.2"/>
<rect x="13.1" y="110.7" fill="#FFED00" width="1.5" height="2.2"/>
<rect x="13.1" y="110.7" fill="#FFED00" width="1.5" height="2.2"/>
<rect x="13.1" y="110.7" fill="#FFED00" width="1.5" height="2.2"/>
<rect x="13.1" y="113.7" fill="#FFED00" width="1.5" height="4.3"/>
<rect x="13.1" y="113.7" fill="#FFED00" width="1.5" height="4.3"/>
<rect x="13.1" y="113.7" fill="#FFED00" width="1.5" height="4.3"/>
<rect x="13.1" y="113.7" fill="#FFED00" width="1.5" height="4.3"/>
<circle fill="#FFED00" cx="13.9" cy="102.5" r="1.3"/>
<circle fill="#FFED00" cx="13.9" cy="102.5" r="1.3"/>
<g>
	<path d="M27.7,127.8V7.5h-1.5V3h1.5V2c0,0-0.5-1.8-2.2-2L13.6,0v127.8"/>
	<path fill="#3A3938" d="M0,127.8V7.5h1.5V3H0V2c0,0,0.5-1.8,2.2-2h11.9v127.8"/>
	<rect x="8.2" y="8.1" fill="#FFED00" width="3.7" height="3.7"/>
	<rect x="1.5" y="3.6" fill="#FFED00" width="10.3" height="1.2"/>
	<rect x="16.9" y="3.6" fill="#FFED00" width="9.4" height="1.2"/>
	<rect x="10.9" y="4.2" fill="#FFED00" width="1" height="2.7"/>
	<rect x="8.2" y="6" fill="#FFED00" width="3.7" height="0.9"/>
	<rect x="8.2" y="6" fill="#FFED00" width="1" height="3.2"/>
	<g opacity="0.15">
		<path fill="#5C5C5B" d="M9,57.3V21.2c0,0,0.3-1.8,1.8-1.8c1.6,0,3.2,0,3.2,0v37.8"/>
		<path fill="#5C5C5B" d="M19.1,57.3V21.2c0,0-0.3-1.8-1.8-1.8s-3.2,0-3.2,0v37.8"/>
		<g>
			<path fill="#5C5C5B" d="M19.1,59.3v36.1c0,0-0.3,1.8-1.8,1.8s-3.2,0-3.2,0V59.3"/>
			<path fill="#5C5C5B" d="M9,59.3v36.1c0,0,0.3,1.8,1.8,1.8s3.2,0,3.2,0V59.3"/>
		</g>
		<rect x="9" y="55.5" fill="#5C5C5B" width="10.1" height="6"/>
	</g>
</g>
</svg>
