<?xml version="1.0" encoding="utf-8"?>
<!-- Generator: Adobe Illustrator 18.1.0, SVG Export Plug-In . SVG Version: 6.00 Build 0)  -->
<svg version="1.1" id="part3" xmlns="http://www.w3.org/2000/svg" xmlns:xlink="http://www.w3.org/1999/xlink" x="0px" y="0px"
	 viewBox="0 0 27.7 153.4" enable-background="new 0 0 27.7 153.4" xml:space="preserve">
<g>
	<g>
		<polyline points="12.6,0 27.7,0 27.7,153.4 21.7,153.4 21.7,146.3 12.6,146.3 		"/>
		<polyline fill="#3A3938" points="14.1,0 0,0 0,153.4 5.6,153.4 5.6,146.3 14.1,146.3 		"/>
	</g>
	<rect x="4.5" y="2.7" fill="#FFED00" width="3.1" height="17.9"/>
	<rect x="20.3" y="2.7" fill="#FFED00" width="3.1" height="17.9"/>
	<rect x="10.5" y="5.5" fill="#FFED00" width="2.3" height="15"/>
	<rect x="15" y="5.5" fill="#FFED00" width="2.1" height="15"/>
	<rect x="10.5" y="23.8" fill="#FFED00" width="6.8" height="1.7"/>
	<g opacity="0.15">
		<path fill="#5C5C5B" d="M8.8,82.6V31.3c0,0,0.3-2.5,1.8-2.5s3.2,0,3.2,0v53.8"/>
		<path fill="#5C5C5B" d="M18.9,82.6V31.3c0,0-0.3-2.5-1.8-2.5s-3.2,0-3.2,0v53.8"/>
		<g>
			<path fill="#5C5C5B" d="M18.9,85.5v51.3c0,0-0.3,2.5-1.8,2.5s-3.2,0-3.2,0V85.5"/>
			<path fill="#5C5C5B" d="M8.8,85.5v51.3c0,0,0.3,2.5,1.8,2.5s3.2,0,3.2,0V85.5"/>
		</g>
		<rect x="8.8" y="80" fill="#5C5C5B" width="10.1" height="8.5"/>
	</g>
</g>
</svg>
