<?xml version="1.0" encoding="utf-8"?>
<!-- Generator: Adobe Illustrator 18.1.0, SVG Export Plug-In . SVG Version: 6.00 Build 0)  -->
<svg version="1.1" id="Calque_1" xmlns="http://www.w3.org/2000/svg" xmlns:xlink="http://www.w3.org/1999/xlink" x="0px" y="0px"
	 viewBox="0 0 20.4 20.4" enable-background="new 0 0 20.4 20.4" xml:space="preserve">
<g>
	<g>
		<path fill="#2F738F" d="M14.2,5.6c-0.1-0.4-0.3-0.6-0.7-0.6h-3.3h0H6.9c-0.4,0-0.6,0.3-0.7,0.6l-1,2.6h5h0h5L14.2,5.6z"/>
		<path fill="#2F738F" d="M4.9,9.4c-0.6,0-1.1,0.5-1.1,1.1c0,0.6,0.5,1.1,1.1,1.1c0.6,0,1.1-0.5,1.1-1.1C6,9.9,5.5,9.4,4.9,9.4z"/>
		<path fill="#2F738F" d="M10.2,0C4.6,0,0,4.6,0,10.2s4.6,10.2,10.2,10.2c5.6,0,10.2-4.6,10.2-10.2S15.8,0,10.2,0z M16.6,14.1v1.3
			c0,1.6-2.3,1.6-2.3,0v-1.3h-4.1H6v1.3c0,1.6-2.3,1.6-2.3,0v-1.3H2.5V9.9c0-1.1,0.9-1.7,1.4-1.8l1.3-3.3c0.2-0.6,0.8-1.2,1.7-1.2
			h1.8h3h1.8c1,0,1.5,0.5,1.7,1.2l1.3,3.3c0.5,0.1,1.4,0.7,1.4,1.8v4.1H16.6z"/>
		<path fill="#2F738F" d="M15.5,9.4c-0.6,0-1.1,0.5-1.1,1.1c0,0.6,0.5,1.1,1.1,1.1c0.6,0,1.1-0.5,1.1-1.1C16.5,9.9,16,9.4,15.5,9.4z
			"/>
	</g>
</g>
</svg>
